<?xml version="1.0" encoding="utf-8"?>
<svg width="487.0129648622647" height="494.99999999999994" viewBox="0 0 422.7543097762715 429.6875" class="css-1j8o68f" xmlns="http://www.w3.org/2000/svg">
<defs id="SvgjsDefs1238"></defs>
<g id="SvgjsG1239" featurekey="rootContainer" transform="matrix(2.2725268052848837,0,0,2.2725268052848837,0.0007942972890252208,0.00039200142469969116)" fill="#ffffff50"><path xmlns="http://www.w3.org/2000/svg" d="M17.914 148.907zM22.657 154.94a90.586 90.586 0 0 0 5.861 6.251c6.914 6.805 15.159 12.525 24.004 16.851 3.259 1.526 6.265 3.107 9.787 4.468.88.338 1.779.7 2.724 1.026.953.302 1.941.604 2.974.903 1.027.321 2.122.549 3.267.786 1.146.23 2.336.493 3.614.624a91.24 91.24 0 0 1-18.434-5.99 93.833 93.833 0 0 1-16.873-9.842c-10.548-7.727-19.57-17.648-26.16-28.989-.272-.339-.685-.985-1.18-1.808l-.796-1.348-.803-1.551c-.534-1.076-1.149-2.168-1.62-3.226a71.281 71.281 0 0 0-1.326-2.748c2.048 5.101 4.412 9.563 7.059 13.806a93.473 93.473 0 0 0 3.869 5.697c-.192-.259-.392-.511-.583-.771a95.012 95.012 0 0 0 4.6 5.841l.016.02zM18.039 149.078l-.125-.17.125.17zM1.335 106.042l-.483-3.875c.256 2.365.553 5.008 1.096 7.654l-.327-1.879a23.961 23.961 0 0 1-.286-1.9zM85.812 185.575c6.652.673 13.628.472 20.461-.609 6.837-1.077 13.524-2.987 19.741-5.449-11.45 4.503-23.602 6.506-35.49 6.171-1.591-.025-3.159 0-4.712-.113z"></path><path xmlns="http://www.w3.org/2000/svg" d="M46.426 171.967l-.259-.165c.087.055.172.111.259.165zM46.167 171.802zM43.653 170.135zM56.077 177.284A83.837 83.837 0 0 0 73.2 183.1c-9.688-2.21-18.805-6.109-26.774-11.133 3.06 1.947 6.277 3.749 9.651 5.317zM177.002 107.094c.098-1.58.296-3.238.346-4.027.594-5.071.77-9.401.745-13.745-.11-.783-.425-2.25-.55-3.918-.153-1.672-.378-3.309-.568-4.924-.289-1.601-.538-3.186-.854-4.74 2.275 11.617 2.237 23.279.144 34.282a94.97 94.97 0 0 1 .737-2.928z"></path><path xmlns="http://www.w3.org/2000/svg" d="M.887 83.482c.848-6.9 2.653-13.626 4.37-18.107l-.695 3.28c.429-.961 1.122-3.194 2.067-5.557l.682-1.802.753-1.747c.5-1.131.92-2.203 1.363-3.025-.303.771-.595 1.602-.947 2.436-.345.837-.732 1.687-1.101 2.542l1.514-3.409A111.863 111.863 0 0 0 4.954 69.8c-1.133 4.352-2.029 8.926-2.511 13.032-.14 1.024-.189 2.024-.28 2.978-.067.954-.183 1.864-.192 2.724-.042 1.719-.1 3.224-.071 4.428.105 2.409.25 3.61.459 2.939.411-1.333.403-8.188 1.837-16.767.767-4.276 1.868-8.966 3.362-13.561 1.483-4.599 3.427-9.058 5.44-12.992l-.592 1.292-.545 1.331-1.116 2.691-1.024 2.78-.521 1.402c-.153.476-.308.954-.461 1.434-1.32 3.807-2.307 7.816-3.167 11.857l-.559 3.052c-.205 1.014-.292 2.046-.444 3.067-.318 2.041-.434 4.097-.611 6.129-.199 4.074-.239 8.098.13 11.946-.015-.914-.03-1.726-.017-2.512l.115-2.355c.048-.809.039-1.667.115-2.65.07-.983.134-2.091.19-3.402.391-6.608 1.572-13.15 3.408-19.481 1.75-6.358 3.814-11.957 6.889-17.03l.801-1.526c.542-1.024.993-2.034 1.566-3.064.653-1.13 1.278-1.976 1.784-2.751.521-.767.963-1.441 1.469-2.095l3.682-5.082c.075-.009-.022.185-.2.473a28.962 28.962 0 0 1 1.959-2.49c.755-.875 1.488-1.803 2.109-2.569.146-.007.288-.011.623-.251 8.65-9.197 19.295-16.692 31.291-21.417l2.667-1.039 2.7-.899 1.343-.448 1.36-.38 2.71-.753c1.55-.373 3.12-.751 4.721-1.091l2.437-.426c.819-.141 1.642-.3 2.484-.378 1.674-.201 3.134-.625 3.921-.729 4.369-.249 8.73-.199 13.849.216.397.007 1.015.043 1.732.082.717.041 1.537.061 2.332.134.932.21 1.927.418 2.971.621 6.369.988 12.527 2.754 18.386 5.103l-.007-.028 2.244.894 2.29 1.058c1.571.684 3.11 1.559 4.7 2.383.798.407 1.554.904 2.338 1.354.77.474 1.576.894 2.32 1.412 1.508 1.002 3.037 1.961 4.446 3.032a99.912 99.912 0 0 1 6.6 5.198c.046.042.094.081.14.122l.042.038 1.457 1.322 1.394 1.391 1.395 1.392c.462.467.89.967 1.337 1.449-.216-.35-.208-.491-.2-.63-.689-.66-1.504-1.441-2.309-2.21 1.343 1.222 2.515 2.327 3.477 3.229.371.474.776.94 1.16 1.449l1.186 1.566 1.261 1.629 1.255 1.752c2.226 2.838 4.191 5.874 6.057 8.97.864 1.588 1.817 3.131 2.586 4.774l1.213 2.436 1.092 2.497c.314.533.192.022.231-.068 1.225 2.962 2.21 6.042 3.102 9.146a88.212 88.212 0 0 1 3.408 17.211c.225 1.378.321 2.772.52 4.153l-.123 2.924c-.001 1.103.057 2.206.01 3.311l-.128 3.326c-.016.75-.124 1.569-.187 2.459-.084.888-.128 1.846-.256 2.856l-.412 3.192c-.132 1.119-.387 2.269-.583 3.471a90.635 90.635 0 0 1-4.312 15.482c-.242.826-.427 1.486-.592 1.855-.627 1.501-1.296 2.954-1.942 4.385-.723 1.394-1.386 2.788-2.127 4.108a86.09 86.09 0 0 1-7.949 12.379c-.336.439-.649.885-.987 1.297l-.998 1.206c-.66.779-1.25 1.558-1.876 2.234-1.251 1.352-2.301 2.606-3.286 3.549-1.128 1.178-1.027 1.233-.246.665a35.07 35.07 0 0 0 1.608-1.262l2.122-1.914c.776-.677 1.519-1.441 2.235-2.161.708-.725 1.416-1.386 1.962-1.984 1.101-1.191 1.824-1.926 1.67-1.599-1.777 3.345-5.013 7.471-9.743 12.035-2.413 2.227-5.128 4.647-8.339 6.98-1.566 1.221-3.307 2.338-5.082 3.558-1.834 1.123-3.708 2.353-5.757 3.445-4.484 2.442 3.365-1.475 3.577-1.512a22.87 22.87 0 0 1-2.377 1.64c-1.478.786-2.943 1.597-4.474 2.273-.895.411-1.774.855-2.679 1.239l-2.729 1.122 1.444-.568c2.952-1.173 5.711-2.555 8.202-3.922-.936.566-1.96 1.221-3.082 1.812-1.203.622-2.448 1.302-3.697 1.909l-3.625 1.686c12.968-4.711 24.885-12.507 34.319-22.67 4.723-5.066 8.935-10.631 12.369-16.651a93.904 93.904 0 0 0 8.288-18.999c-3.154 9.93-8.071 19.052-13.981 26.765 10.744-14.507 17.15-32.293 17.999-50.636-.001 1.011-.101 2.018-.168 3.025-.083 1.007-.123 2.018-.241 3.022-.257 2.005-.441 4.021-.827 6.009-.624 4-1.636 7.931-2.782 11.815 2.262-7.021 3.613-14.424 4.145-21.869.554-7.451.092-14.947-1.057-22.211 1.974 9.622 2.301 20.524.619 31.298 1.182-6.949 1.482-14.112 1.028-21.214-.102-2.713-.422-5.407-.685-7.901-.377-2.476-.662-4.762-1.027-6.611 1.445 6.826 2.015 12.648 2.293 18.136-.267-11.977-2.748-24.112-7.62-35.511 2.659 6.191 4.842 12.851 6.175 19.698 1.34 6.84 1.897 13.838 1.58 20.57-.015-.788.018-1.575-.028-2.366l-.107-2.391c.287 10.85-1.384 21.604-4.696 31.717-1.662 5.056-3.715 9.969-6.2 14.644a95.521 95.521 0 0 1-8.56 13.316c3.673-4.29 7.551-10.354 10.646-17.015 3.081-6.675 5.368-13.894 6.941-20.199-2.314 11.322-6.907 22.494-13.571 32.471-6.646 9.985-15.351 18.764-25.423 25.502-10.06 6.759-21.474 11.437-33.187 13.748a94.608 94.608 0 0 1-17.657 1.809 94.462 94.462 0 0 1-17.361-1.515l3.005.571c1.002.19 2.018.295 3.026.445 2.016.324 4.055.446 6.087.633 4.073.229 8.168.306 12.25-.005 4.089-.217 8.152-.827 12.196-1.572 2.006-.456 4.036-.829 6.017-1.414.994-.278 2-.521 2.987-.83l2.955-.958c-1.492.462-3.062 1.074-4.739 1.523l-2.101.618a91.772 91.772 0 0 0 12.91-4.496 89.46 89.46 0 0 0 5.651-2.705 96.653 96.653 0 0 1-10.714 4.872 98.407 98.407 0 0 1-21.66 5.382c-1.11.176-2.122.231-3.029.326l-2.428.24c-1.429.113-2.484.164-3.222.245-1.477.147-1.687.284-1.099.397.587.113 1.971.203 3.673.251 1.697-.01 3.71-.101 5.541-.268 18.397-1.887 35.288-9.107 48.824-19.916 13.545-10.811 23.919-25.172 29.701-41.467.363-.946.642-1.922.944-2.89.293-.971.617-1.932.882-2.912.491-1.97 1.072-3.917 1.448-5.917l.619-2.985.487-3.012.241-1.507.172-1.517.342-3.034c.698-8.114.422-16.315-.812-24.363-.66-4.554-1.82-9.961-3.315-14.777l-1.15-3.484c-.4-1.107-.825-2.151-1.203-3.133l-.557-1.415-.571-1.271-.981-2.124c-3.134-6.359-7.072-12.424-11.682-18.065-4.605-5.643-9.896-10.868-15.861-15.418l-2.244-1.703-2.327-1.608-1.166-.806-1.203-.756-2.417-1.508c-3.295-1.904-6.67-3.739-10.228-5.261-3.521-1.598-7.206-2.895-10.957-4.055-1.895-.52-3.781-1.1-5.724-1.499-.968-.209-1.928-.463-2.907-.638l-2.944-.521C100.363.01 93.04-.285 85.724.265 78.412.83 71.069 2.218 64.028 4.614l-2.635.913c-.881.297-1.73.682-2.597 1.019-.858.359-1.735.673-2.577 1.069l-2.532 1.173c-.852.376-1.675.808-2.496 1.245l-2.469 1.297-2.402 1.412c-.8.472-1.606.933-2.372 1.458l-2.324 1.528c-.782.497-1.506 1.078-2.261 1.612-.741.554-1.51 1.07-2.226 1.654l-2.157 1.737c-.729.565-1.417 1.178-2.103 1.792l-2.063 1.83-1.971 1.919c-.656.639-1.319 1.271-1.93 1.951-5.031 5.298-9.451 11.078-13.066 17.194A99.518 99.518 0 0 0 5.18 64.379C.805 77.299-.45 90.402.134 102.237c-.126-4.872-.147-11.859.753-18.755zm141.132 90.446a96.807 96.807 0 0 0 8.765-6.389c-2.84 2.339-5.758 4.499-8.765 6.389zm40.217-54.282c-.299.901-.552 1.791-.882 2.641l-.957 2.523-.466 1.248-.513 1.231a108.54 108.54 0 0 0-.997 2.501 97.307 97.307 0 0 1-6.587 13.35c-2.521 4.275-5.443 8.281-8.565 12.04-1.542 1.899-3.222 3.66-4.874 5.421l-2.581 2.523c-.847.848-1.774 1.604-2.652 2.404-.736.64-1.478 1.266-2.225 1.882a90.696 90.696 0 0 0 7.896-7.312 89.808 89.808 0 0 1-11.689 10.188c-1.036.722-2.037 1.496-3.113 2.176l-3.247 2.069-3.43 1.949c-1.167.648-2.399 1.224-3.634 1.855a74.206 74.206 0 0 1 2.685-1.508c1.021-.567 2.092-1.237 3.138-1.85 1.054-.601 2.012-1.261 2.808-1.813.796-.552 1.42-1.01 1.745-1.306-.464.315-.936.617-1.406.924a92.477 92.477 0 0 0 1.507-1.015c-.021.023-.065.059-.101.091 10.932-7.466 20.245-17.277 27.223-28.462 7.009-11.175 11.57-23.781 13.46-36.601-.41 5.142-1.352 9.248-2.543 12.851zm-6.654-65.352zm-8.448-12.698a92.37 92.37 0 0 1 7.773 14.352c.25.549.486 1.106.719 1.664 4.963 12.154 7.221 25.192 6.89 38.036.084-4.25-.198-8.498-.669-12.71-.533-4.854-1.518-9.65-2.824-14.341-2.562-9.407-6.723-18.323-12.005-26.451.485.67.996 1.396 1.525 2.166a32.826 32.826 0 0 1 1.59 2.463l-.638-1.109-.689-1.079-1.378-2.156c-.938-1.424-1.955-2.796-2.934-4.192-1.062-1.334-2.069-2.712-3.174-4.011-.836-.953-1.637-1.938-2.485-2.879 2.992 3.155 5.801 6.54 8.299 10.247zM96.886 1.152c1.467.078 2.937.221 4.407.331 1.204.101 2.402.279 3.588.413.356.015.732.039 1.204.092.471.065 1.034.186 1.769.354 5.469.912 10.459 2.283 14.001 3.699 6.798 2.573 13.123 5.774 18.86 9.471 5.739 3.69 10.889 7.887 15.246 12.471 2.008 2.179 1.422 1.704.315.646l1.662 1.764c-.736-.734-1.459-1.478-2.206-2.196l-2.301-2.09c.56.49 1.918 1.663 2.845 2.522-7.389-7.539-16.026-13.799-25.375-18.404-9.356-4.603-19.431-7.446-29.502-8.581 1.618.18 2.412.22 3.168.24-1.085-.127-2.173-.301-3.274-.401-1.479-.097-2.955-.229-4.423-.301l-4.36-.103c1.444-.001 2.907.039 4.376.073z"></path><path xmlns="http://www.w3.org/2000/svg" d="M115.942 184.69l.426-.125c-.446.12-.885.252-1.334.366.304-.076.609-.15.908-.241zM160.424 146.151c4.235-5.587 7.977-12.263 10.366-18.014l-.029.006c-6.061 14.322-15.892 26.66-28.16 35.744a159.12 159.12 0 0 0 6.418-4.703c2.698-2.82 7.213-7.406 11.405-13.033zM35.35 162.846c7.172 6.412 15.821 11.992 25.448 15.751 3.754 1.413 7.585 2.651 11.503 3.523 1.944.502 3.929.812 5.899 1.181.987.175 1.987.272 2.979.412.994.129 1.986.275 2.987.333-4.519-.501-9.005-1.251-13.372-2.44-4.364-1.185-8.642-2.65-12.769-4.449a97.4 97.4 0 0 1-11.894-6.314c-3.786-2.408-7.376-5.097-10.781-7.997zM123.877 174.277l-2.219.871-2.266.756c-1.5.54-3.047.944-4.59 1.373 1.551-.39 3.111-.754 4.624-1.254l2.283-.698 2.23-.815c-.086-.044-.594.055-.062-.233zM97.683 179.965c-1.16.099-2.326.09-3.494.102-1.168.014-2.338.039-3.509-.038l1.576.148c.482.031.916.068 1.295.113 1.381-.118 2.752-.151 4.132-.325zM51.441 169.209c1.341.787 2.765 1.48 4.178 2.244.354.194.996.415 1.801.709-1.721-.739-3.37-1.655-5.046-2.505-.83-.441-1.629-.935-2.443-1.395-.812-.464-1.621-.927-2.389-1.445l.937.626.977.584 1.985 1.182z"></path></g>
<g id="SvgjsG1240" featurekey="symbolFeature-0" transform="matrix(1.9713186995256642,0,0,1.9713186995256642,112.78208614601061,48.97947910167977)" fill="#ffffff50"><g xmlns="http://www.w3.org/2000/svg"><path d="M3.15419,82L97,81.9283" style="" fill="none" stroke-opacity="50%" stroke-width="1px" stroke="white"></path></g><g xmlns="http://www.w3.org/2000/svg"><path d="M88.9225,81.7116C88.9225,81.7116 89.0562,30.0232 88.9756,23.4119C88.8951,16.8006 86.7898,14.2141 86.7898,14.2141" style="" fill="none" stroke-opacity="50%" stroke-width="1px" stroke="white"></path><path d="M74.5389,81.7835C74.5389,81.7835 74.4052,30.0951 74.4858,23.4838C74.5663,16.8725 76.6716,14.286 76.6716,14.286" style="" fill="none" stroke-opacity="50%" stroke-width="1px" stroke="white"></path><path d="M74.9577,18.8809L88.4961,18.7824" style="" fill="none" stroke-opacity="50%" stroke-width="1px" stroke="white"></path><path d="M77.4607,18.8064C77.4607,18.8064 77.3782,18.7259 77.7895,16.9197C78.1743,15.23 78.7629,14.3489 78.7629,14.3489" style="" fill="none" stroke-opacity="50%" stroke-width="1px" stroke="white"></path><path d="M86.0954,18.7476C86.0954,18.7476 86.1778,18.6671 85.7665,16.8608C85.3817,15.1712 84.7932,14.2901 84.7932,14.2901" style="" fill="none" stroke-opacity="50%" stroke-width="1px" stroke="white"></path><path d="M79.9963,18.7309C80.3903,15.9921 81.0122,14.4448 81.0122,14.4448" style="" fill="none" stroke-opacity="50%" stroke-width="1px" stroke="white"></path><path d="M83.6273,18.6788C83.2333,15.9401 82.6114,14.3928 82.6114,14.3928" style="" fill="none" stroke-opacity="50%" stroke-width="1px" stroke="white"></path></g><g xmlns="http://www.w3.org/2000/svg"><path d="M64.0003,81.9283L64.0003,37.742L57.7709,30.6226L51.5414,37.742L51.5414,81.9283" style="" fill="none" stroke-opacity="50%" stroke-width="1px" stroke="white"></path></g><g xmlns="http://www.w3.org/2000/svg"><path d="M57.7709,30.6226L57.7709,81.9283" style="" fill="none" stroke-opacity="50%" stroke-width="1px" stroke="white"></path></g><g xmlns="http://www.w3.org/2000/svg"><path d="M51.5414,37.742L57.7709,46.6412L51.5414,55.5405L57.7709,64.4397L51.5414,73.3389L57.7709,81.3482" style="" fill="none" stroke-opacity="50%" stroke-width="1px" stroke="white"></path></g><g xmlns="http://www.w3.org/2000/svg"><path d="M57.7709,81.3482L64.0003,73.3389L57.7709,64.4397L64.0003,55.5405L57.7709,46.6412L64.0003,37.742" style="" fill="none" stroke-opacity="50%" stroke-width="1px" stroke="white"></path></g><g xmlns="http://www.w3.org/2000/svg"><path d="M64.0003,55.5405L69.877,64.7074L69.877,81.9283" style="" fill="none" stroke-opacity="50%" stroke-width="1px" stroke="white"></path></g><g xmlns="http://www.w3.org/2000/svg"><path d="M69.877,64.7074L64.0003,73.3389L69.877,81.1622" style="" fill="none" stroke-opacity="50%" stroke-width="1px" stroke="white"></path></g><g xmlns="http://www.w3.org/2000/svg"><path d="M57.7709,30.6226L57.7709,18.8692" style="" fill="none" stroke-opacity="50%" stroke-width="1px" stroke="white"></path><path d="M61.6496,34.7002L61.6496,21.2199" style="" fill="none" stroke-opacity="50%" stroke-width="1px" stroke="white"></path></g><g xmlns="http://www.w3.org/2000/svg"><path d="M57.7709,25.9213L61.6496,28.2719L61.6496,25.9213L57.7709,23.5706" style="" fill="none" stroke-opacity="50%" stroke-width="1px" stroke="white"></path></g><g xmlns="http://www.w3.org/2000/svg"><path d="M37.0176,71.9095C37.0176,71.9095 34.8634,64.6376 27.235,64.7079C20.1281,64.7735 17.4525,71.9095 17.4525,71.9095" style="" fill="none" stroke-opacity="50%" stroke-width="1px" stroke="white"></path></g><g xmlns="http://www.w3.org/2000/svg"><path d="M19.9126,73.8606C19.9126,73.8606 16.3404,70.0729 11.6603,70.1096C7.30011,70.1437 6.40877,73.8606 6.40877,73.8606" style="" fill="none" stroke-opacity="50%" stroke-width="1px" stroke="white"></path></g><g xmlns="http://www.w3.org/2000/svg"><g><path d="M35.217,73.8606C35.217,73.8606 38.7893,70.0729 43.4694,70.1096C47.8296,70.1437 48.7209,73.8606 48.7209,73.8606" style="" fill="none" stroke-opacity="50%" stroke-width="1px" stroke="white"></path></g></g><g xmlns="http://www.w3.org/2000/svg"><path d="M7.30902,75.5108L19.0124,75.5108" style="" fill="none" stroke-opacity="50%" stroke-width="1px" stroke="white"></path></g><g xmlns="http://www.w3.org/2000/svg"><g><path d="M7.30902,78.2116L19.0124,78.2116" style="" fill="none" stroke-opacity="50%" stroke-width="1px" stroke="white"></path></g></g><g xmlns="http://www.w3.org/2000/svg"><g><path d="M7.30902,80.9124L19.0124,80.9124" style="" fill="none" stroke-opacity="50%" stroke-width="1px" stroke="white"></path></g></g><g xmlns="http://www.w3.org/2000/svg"><g><g><path d="M21.7132,80.9124L33.4165,80.9124" style="" fill="none" stroke-opacity="50%" stroke-width="1px" stroke="white"></path></g></g></g><g xmlns="http://www.w3.org/2000/svg"><g><path d="M36.1173,75.5108L47.8207,75.5108" style="" fill="none" stroke-opacity="50%" stroke-width="1px" stroke="white"></path></g><g><g><path d="M36.1173,78.2116L47.8207,78.2116" style="" fill="none" stroke-opacity="50%" stroke-width="1px" stroke="white"></path></g></g><g><g><path d="M36.1173,80.9124L47.8207,80.9124" style="" fill="none" stroke-opacity="50%" stroke-width="1px" stroke="white"></path></g></g></g><g xmlns="http://www.w3.org/2000/svg"><path d="M22.6134,69.209L22.6134,79.1119" style="" fill="none" stroke-opacity="50%" stroke-width="1px" stroke="white"></path></g><g xmlns="http://www.w3.org/2000/svg"><path d="M32.5163,69.209L32.5163,79.1119" style="" fill="none" stroke-opacity="50%" stroke-width="1px" stroke="white"></path></g><g xmlns="http://www.w3.org/2000/svg"><path d="M74.5784,23.5706L88.6824,23.5706" style="" fill="none" stroke-opacity="50%" stroke-width="1px" stroke="white"></path><path d="M74.5784,28.8596L88.6824,28.8596" style="" fill="none" stroke-opacity="50%" stroke-width="1px" stroke="white"></path><path d="M74.5784,34.7363L88.6824,34.7363" style="" fill="none" stroke-opacity="50%" stroke-width="1px" stroke="white"></path><path d="M74.5784,40.0253L88.6824,40.0253" style="" fill="none" stroke-opacity="50%" stroke-width="1px" stroke="white"></path><path d="M74.5784,45.902L88.6824,45.902" style="" fill="none" stroke-opacity="50%" stroke-width="1px" stroke="white"></path><path d="M74.5784,51.191L88.6824,51.191" style="" fill="none" stroke-opacity="50%" stroke-width="1px" stroke="white"></path><path d="M74.5784,57.0677L88.6824,57.0677" style="" fill="none" stroke-opacity="50%" stroke-width="1px" stroke="white"></path><path d="M74.5784,62.3567L88.6824,62.3567" style="" fill="none" stroke-opacity="50%" stroke-width="1px" stroke="white"></path><path d="M74.5784,67.6458L88.6824,67.6458" style="" fill="none" stroke-opacity="50%" stroke-width="1px" stroke="white"></path><path d="M74.5784,73.5225L88.6824,73.5225" style="" fill="none" stroke-opacity="50%" stroke-width="1px" stroke="white"></path><path d="M74.5784,78.8115L88.6824,78.8115" style="" fill="none" stroke-opacity="50%" stroke-width="1px" stroke="white"></path></g></g>
<g id="SvgjsG1241" featurekey="nameFeature-0" transform="matrix(3.0690232871788807,0,0,3.0690232871788807,103.610304146408,196.13589943816214)" fill="#ffffff50"><path d="M10.24 40.64 c-3.28 0 -8.28 -1.44 -7.8 -3.2 l0.4 -1.48 c1.12 -4.2 2.44 1.96 9.04 1.96 c3.36 0 5 -1.64 5 -3.96 c0 -1.88 -1.2 -2.68 -4.04 -4.44 l-3.88 -2.44 c-4.32 -2.72 -6.08 -4.4 -6.08 -7.4 c0 -4.92 4.8 -8.32 9.76 -8.32 c3.04 0 6.92 1.32 6.48 2.68 l-0.48 1.52 c-1.24 3.88 -2.24 -1.48 -7.72 -1.48 c-2.84 0 -4.32 1.44 -4.32 3.56 c0 1.8 1.08 2.8 3.76 4.44 l4.2 2.6 c4.24 2.64 5.96 4.44 5.96 7.32 c0 5 -4.92 8.64 -10.28 8.64 z M67.12 12 c0.52 0 0.64 1.28 0.12 1.36 c-1.6 0.24 -2.84 0.84 -4.16 4.24 l-6.04 15.68 c-1.28 3.32 -1.92 5.16 -1.92 6.72 c0 0.24 -2.8 0.88 -2.92 0.6 l-6.28 -16 l-3.76 8.68 c-1.44 3.32 -1.92 5.12 -1.92 6.72 c0 0.24 -2.84 0.88 -2.96 0.6 l-9.12 -22.96 c-1.36 -3.44 -2.56 -4.04 -4.12 -4.28 c-0.52 -0.08 -0.4 -1.36 0.12 -1.36 l10.4 0 c0.52 0 0.6 1.28 0.12 1.36 c-1.84 0.32 -2.8 1.16 -1.6 4.24 l6.32 16.32 l4.08 -9.44 c0.92 -2.12 1.04 -3.4 -0.04 -6.16 c-1.48 -3.8 -2.52 -4.68 -3.56 -4.96 c-0.44 -0.12 -0.4 -1.36 0.12 -1.36 l7.96 0 c0.4 0 0.52 0.12 0.52 0.32 c0 0.52 -1.76 1.76 -0.4 5.28 l6.16 16 l6.08 -16 c1.32 -3.44 0 -3.88 -1.92 -4.24 c-0.44 -0.08 -0.36 -1.36 0.12 -1.36 l8.6 0 z"></path></g>
<g id="SvgjsG1242" featurekey="sloganFeature-0" transform="matrix(1.072386080915969,0,0,1.072386080915969,130.39946423956462,324.97319137068416)" fill="#ffffff50"><path d="M0.56 16.56 c0 -0.52 0.92 -0.66 1.24 -0.66 c1.94 0 1.22 3.44 2.96 3.44 c0.28 0.04 0.56 0.06 0.82 0.06 c2.28 0 3.76 -1.44 3.76 -3.2 c0 -0.58 -0.16 -1.18 -0.5 -1.78 c-1.22 -2.18 -4 -3.8 -4 -5.9 c0 -0.94 0.96 -1.78 1.68 -2.28 c0.58 -0.4 1.56 -0.62 2.56 -0.62 c1.82 0 3.76 0.72 3.76 2.52 c0 0.46 -0.32 0.98 -0.84 0.98 c-1.96 0 -0.98 -2.88 -3.4 -2.88 c-0.82 0 -1.8 0.46 -1.8 1.4 c0 0.4 0.04 0.6 0.18 1.12 c0.8 1.32 2.2 2.64 3.34 3.8 c0.68 0.68 0.92 1.76 0.92 2.82 c0 1.14 -0.3 2.24 -0.72 2.66 c-1.34 1.34 -3.12 2.02 -4.9 2.02 c-1.48 0 -2.96 -0.44 -4.22 -1.36 c-0.56 -0.42 -0.84 -1.48 -0.84 -2.14 z M12.24 18.76 c0 -0.92 1.2 -2.38 1.58 -3.12 c0.18 -0.32 0.44 -1.38 0.84 -1.38 l1.12 0 c0.14 0 0.36 0.22 0.36 0.36 c0 0.26 -0.66 1.42 -1.2 2.34 c-0.38 0.64 -0.96 1.28 -0.96 2.06 c0 0.16 0 0.34 0.3 0.34 c0.48 0 1.14 -0.5 1.42 -0.5 c0.14 0 0.18 0.14 0.18 0.2 c0 0.52 -1.88 0.96 -2.34 0.96 c-0.8 0 -1.3 -0.42 -1.3 -1.26 z M15.02 12.58 c0 -0.56 0.42 -1.2 1.12 -1.2 c0.46 0 1.02 0.46 1.02 0.92 c0 0.66 -0.5 1.02 -1.12 1.02 c-0.5 0 -0.88 -0.14 -1.02 -0.74 z M16.18 19.02 c0 -1.14 1.38 -3.24 1.8 -4.36 c0.1 -0.16 0.36 -0.38 0.56 -0.38 c1.08 0.16 1.42 0.1 1.42 0.2 c0 0.02 -0.02 0.04 -0.04 0.08 c-1.78 3.54 -1.88 3.82 -1.88 4.14 c0 0.28 0.2 0.42 0.46 0.42 c1.6 -0.38 2.12 -1.58 2.62 -3.08 l0.74 -1.38 c0.18 -0.32 0.6 -0.38 0.94 -0.38 c0.4 0 0.6 0.02 0.82 0.28 c-0.16 0.28 -1.84 3.62 -1.84 4.58 c0 0.16 0.06 0.26 0.16 0.26 c0.44 0 0.68 -0.36 1.04 -0.36 c0.02 0 0.32 -0.02 0.32 0.18 c0 0.02 -0.02 0.06 -0.04 0.12 c-0.56 0.66 -1.18 0.7 -2 0.7 c-1.02 0 -1.32 -0.92 -1.5 -0.92 c-0.34 0.28 -1.3 1.02 -2.04 1.02 c-0.78 0 -1.54 -0.32 -1.54 -1.12 z M27.64 19.74 c0 -1.16 1.58 -3.08 1.58 -4.18 c0.6 -1.42 0.68 -3.08 0.68 -4.34 c0 -1.32 0.12 -3.68 -1.84 -3.68 c-0.06 0 -0.12 0.04 -0.18 0.04 c-0.24 0 -0.42 -0.14 -0.42 -0.38 c0 -0.28 0.36 -0.66 0.46 -0.94 c0.46 -0.22 0.92 -0.42 1.4 -0.54 c2.04 0 2.6 2.26 2.6 3.9 c0 1.3 -0.2 2.64 -0.56 3.9 c0.02 0.06 0.02 0.14 0.02 0.22 c0 0.52 -0.34 1.06 -0.34 1.58 c0.1 0 1.16 -2.08 1.34 -2.16 l0.84 -1.6 c0.02 0 1.94 -3.68 2.14 -4.18 c0.18 -0.46 0.3 -1.58 0.98 -1.58 c0.36 0 0.5 0.28 0.5 0.64 c0 2.04 -0.56 4 -0.56 6.06 l-0.16 2.6 l0.12 0.06 c0.32 0 0.2 -0.16 0.34 -0.42 c0.18 -0.28 1.56 -3.24 2.12 -4.1 c0.64 -0.98 1.36 -2.3 2.14 -3.16 c0.38 -0.42 1.44 -1.44 1.5 -1.5 l0.36 -0.18 c1.5 0 1.68 0.5 1.68 0.74 c0 1.44 -1.68 2.06 -2.6 2.78 l0 -0.02 c-0.06 0 -2.66 2.76 -3.08 3.38 c-0.66 0.96 -1.24 2.06 -1.76 3.16 c-0.5 1.08 -1.04 2.14 -1.48 3.26 c-0.18 0.44 -0.08 1.22 -0.88 1.22 c-0.24 0 -0.52 -0.14 -0.52 -0.38 c0 -0.26 0.1 -0.3 0.1 -0.46 c-0.08 -0.16 -0.1 -0.26 -0.1 -0.36 c0 -0.9 0.14 -1.64 0.18 -2.44 l0 -1.76 c0.04 -1.6 0.46 -3.18 0.46 -4.74 l-0.08 0 c-1.32 1.94 -1.3 3.02 -1.94 3.62 l-1.42 2.5 c-0.78 0.66 -2.26 4.2 -3.06 4.2 c-0.42 0 -0.56 -0.42 -0.56 -0.76 z M37.72 19.02 c0 -1.14 1.38 -3.24 1.8 -4.36 c0.1 -0.16 0.36 -0.38 0.56 -0.38 c1.08 0.16 1.42 0.1 1.42 0.2 c0 0.02 -0.02 0.04 -0.04 0.08 c-1.78 3.54 -1.88 3.82 -1.88 4.14 c0 0.28 0.2 0.42 0.46 0.42 c1.6 -0.38 2.12 -1.58 2.62 -3.08 l0.74 -1.38 c0.18 -0.32 0.6 -0.38 0.94 -0.38 c0.4 0 0.6 0.02 0.82 0.28 c-0.16 0.28 -1.84 3.62 -1.84 4.58 c0 0.16 0.06 0.26 0.16 0.26 c0.44 0 0.68 -0.36 1.04 -0.36 c0.02 0 0.32 -0.02 0.32 0.18 c0 0.02 -0.02 0.06 -0.04 0.12 c-0.56 0.66 -1.18 0.7 -2 0.7 c-1.02 0 -1.32 -0.92 -1.5 -0.92 c-0.34 0.28 -1.3 1.02 -2.04 1.02 c-0.78 0 -1.54 -0.32 -1.54 -1.12 z M49.1 19.32 c0 -0.74 0.22 -1.24 0.66 -1.78 c0.1 -0.22 0.96 -1.56 0.96 -2.14 c0 -0.16 -0.08 -0.26 -0.26 -0.26 c0.02 0 -0.68 0.12 -0.9 0.18 c-0.46 0.56 -1.36 1.02 -2.88 4.46 c-0.12 0.28 -0.56 0.28 -0.84 0.28 c-0.14 0 -0.78 -0.04 -0.84 -0.28 c0 -0.24 2.08 -4.08 2.06 -4.08 l0.72 -1.4 c0.08 -0.1 0.44 -0.14 0.82 -0.14 c0.4 0 0.78 0.04 0.78 0.14 l0 0.6 c0.56 -0.44 1.24 -0.8 2.04 -0.8 c0.46 0 1.22 0.56 1.22 1.08 c0 1.5 -1.74 2.16 -1.74 3.84 c0 0.18 0.12 0.24 0.32 0.24 c0.36 0 0.92 -0.24 1.02 -0.24 c0.12 0 0.18 0.16 0.18 0.2 c0 0.38 -1.7 0.94 -2.28 0.94 c-0.28 0 -1.04 -0.16 -1.04 -0.84 z M56.66 15.68 l0 -0.82 c0.06 -0.38 0.24 -1.22 0.28 -1.22 c1.14 -2.38 2.2 -4.76 4.56 -6.32 c0.14 -0.1 0.7 -0.56 0.84 -0.66 c1.02 -0.36 0.88 -0.96 3.64 -0.96 c1.52 0 3.24 0.86 3.24 2.54 c-0.06 0.52 -0.12 1.68 -0.46 2.24 c-1.18 1.24 -1.98 2.42 -4.04 2.42 c-1.32 0 -2.18 -1.24 -2.18 -2.32 c0 -0.8 0.48 -1.5 1.62 -1.5 c0.56 0 1.24 0.42 1.24 1.02 c0 0.22 0 0.7 -0.3 0.7 c-0.36 0 -0.76 -0.68 -1.18 -0.68 c-0.18 0 -0.42 0.18 -0.46 0.36 c0 1.12 0.38 1.76 1.44 1.76 c1.68 0 2.46 -1.62 2.46 -3.06 c0 -1.74 -2.14 -1.9 -3.34 -2.06 c-0.86 0.1 -1.68 0.64 -2.42 1.12 c-1.9 1.26 -2.78 3.76 -3.26 5.86 c0.06 1.12 0.36 2 0.94 3.08 c0.66 0.58 1.7 1.12 2.74 1.12 c0.82 0 1.96 -0.14 2.74 -0.46 c0.66 -0.28 1.58 -0.82 2.02 -0.82 c0.12 0 0.2 0.06 0.2 0.16 c0 0.64 -3.2 2.38 -3.7 2.6 c-0.78 0.34 -1.84 0.38 -2.66 0.38 c-1.68 0 -3.22 -0.88 -3.78 -2.62 c-0.18 -0.6 -0.02 -1.24 -0.18 -1.86 z M67.5 20 c-0.08 -0.04 -0.18 -0.26 -0.18 -0.36 c0.1 -0.32 0.5 -0.7 0.66 -1.02 c0.04 -0.06 0.12 -0.38 0.26 -0.46 c0.46 -0.96 3.64 -7.02 4.3 -7.92 c0.6 -0.92 0.38 -2.06 1.86 -2.06 c0.04 0 0.82 -0.02 0.82 0.38 c0 0.24 -0.14 0.48 -0.28 0.66 c-1.12 2.24 -2.1 2.88 -3.02 5.58 l0.14 0 c0.64 -0.38 1.16 -0.56 1.86 -0.56 c0.6 0 1.28 0.46 1.28 0.9 c0 0.46 -0.34 1.04 -0.54 1.24 c-0.52 0.84 -1.16 1.92 -1.16 2.9 c0.14 0.06 0.26 0.08 0.4 0.08 c0.5 0 0.92 -0.32 1.32 -0.48 c0.1 0 0.1 0.1 0.1 0.16 c0 0.74 -1.76 1.06 -2.38 1.06 c-0.7 0 -1.36 -0.18 -1.36 -0.98 c0 -0.92 0.72 -1.54 1.12 -2.26 c0.34 -0.6 0.66 -1.34 0.66 -1.54 c0 -0.28 -0.32 -0.34 -0.56 -0.34 c-1.06 0 -1.3 1.02 -3.62 4.86 c-0.1 0.16 -0.84 0.26 -0.94 0.26 s-0.66 -0.04 -0.74 -0.1 z M75.54 18.24 c0.02 -1.98 2.12 -4.08 4.32 -4.08 c0.86 0 1.24 0.8 1.24 1.32 c0 2.08 -3.8 1.56 -3.8 2.76 c0 0.56 0.3 0.94 0.86 0.94 c1.1 0 1.52 -0.72 2.14 -0.72 l0 0 s0 -0.02 0.02 -0.02 c0.06 0 0.16 0.04 0.16 0.26 c0 0.5 -2.16 1.42 -2.96 1.42 c-1.24 0 -1.98 -0.84 -1.98 -1.88 z M77.68 16.86 c0 0.16 0.08 0.18 0.18 0.18 l0.1 0 c1.6 -0.78 1.78 -0.8 1.78 -1.92 c0 -0.26 -0.14 -0.4 -0.44 -0.4 c-1 0 -1.24 1.74 -1.62 2.14 z M81.10000000000001 19.02 c0 -1.14 1.38 -3.24 1.8 -4.36 c0.1 -0.16 0.36 -0.38 0.56 -0.38 c1.08 0.16 1.42 0.1 1.42 0.2 c0 0.02 -0.02 0.04 -0.04 0.08 c-1.78 3.54 -1.88 3.82 -1.88 4.14 c0 0.28 0.2 0.42 0.46 0.42 c1.6 -0.38 2.12 -1.58 2.62 -3.08 l0.74 -1.38 c0.18 -0.32 0.6 -0.38 0.94 -0.38 c0.4 0 0.6 0.02 0.82 0.28 c-0.16 0.28 -1.84 3.62 -1.84 4.58 c0 0.16 0.06 0.26 0.16 0.26 c0.44 0 0.68 -0.36 1.04 -0.36 c0.02 0 0.32 -0.02 0.32 0.18 c0 0.02 -0.02 0.06 -0.04 0.12 c-0.56 0.66 -1.18 0.7 -2 0.7 c-1.02 0 -1.32 -0.92 -1.5 -0.92 c-0.34 0.28 -1.3 1.02 -2.04 1.02 c-0.78 0 -1.54 -0.32 -1.54 -1.12 z M92.48 19.32 c0 -0.74 0.22 -1.24 0.66 -1.78 c0.1 -0.22 0.96 -1.56 0.96 -2.14 c0 -0.16 -0.08 -0.26 -0.26 -0.26 c0.02 0 -0.68 0.12 -0.9 0.18 c-0.46 0.56 -1.36 1.02 -2.88 4.46 c-0.12 0.28 -0.56 0.28 -0.84 0.28 c-0.14 0 -0.78 -0.04 -0.84 -0.28 c0 -0.24 2.08 -4.08 2.06 -4.08 l0.72 -1.4 c0.08 -0.1 0.44 -0.14 0.82 -0.14 c0.4 0 0.78 0.04 0.78 0.14 l0 0.6 c0.56 -0.44 1.24 -0.8 2.04 -0.8 c0.46 0 1.22 0.56 1.22 1.08 c0 1.5 -1.74 2.16 -1.74 3.84 c0 0.18 0.12 0.24 0.32 0.24 c0.36 0 0.92 -0.24 1.02 -0.24 c0.12 0 0.18 0.16 0.18 0.2 c0 0.38 -1.7 0.94 -2.28 0.94 c-0.28 0 -1.04 -0.16 -1.04 -0.84 z M96.17999999999999 25.28 c-0.78 0 -1.62 -0.22 -1.62 -1.06 c0 -0.64 0.36 -0.9 0.74 -0.9 c0.78 0 1.12 0.42 1.12 1.2 c1.12 -0.22 0.7 -0.46 1.02 -0.92 c0.98 -1.34 1.44 -2.4 2.42 -3.62 c0.08 -0.08 0.1 -0.14 0.1 -0.18 c0 -0.14 -0.22 -0.2 -0.38 -0.2 c-0.14 0 -0.2 0 -0.2 0.2 c-0.3 0.22 -0.86 0.38 -1.3 0.38 c-0.98 0 -1.58 -0.8 -1.58 -1.68 c0 -1.26 1.2 -2.54 2.06 -3.18 c0.68 -0.5 1.44 -1.2 2.36 -1.2 c0.5 0 1.42 0.38 1.64 0.38 c0.14 0 0.26 -0.28 0.78 -0.28 c0.38 0 0.78 0.12 0.78 0.54 c0 0.52 -0.5 1.22 -2.32 4.56 c-0.3 0.7 -0.7 1.52 -1.02 2.06 c-1.16 2 -1.9 3.9 -4.6 3.9 z M98.36 18.58 c0 0.34 0.14 0.74 0.56 0.74 c0.86 0 1.94 -1.32 2.14 -1.94 c0.3 -0.96 1.06 -1.44 1.12 -2.34 c-0.24 -0.12 -0.48 -0.18 -0.8 -0.18 c-1.34 0 -3.02 2.42 -3.02 3.72 z M104.27999999999999 19.08 c0.16 -0.64 0.76 -1.12 1.3 -1.12 c0.84 0 1.12 1.3 1.12 2 c0 0.28 -0.04 0.54 -0.16 0.82 c-0.14 0.32 -1.66 2.36 -2.32 2.36 c-0.1 0 -0.24 -0.1 -0.24 -0.28 c0 -0.5 1.56 -1.6 1.56 -2.34 c0 -0.62 -1.26 -0.72 -1.26 -1.44 z M110.9 19.8 c0 -0.46 0.28 -0.36 0.66 -0.5 c2.54 -0.98 4.22 -2.98 5.3 -5.4 c1.08 -1.22 1.36 -3.02 2.22 -4.36 c0.62 -0.98 1.36 -1.82 1.78 -2.98 c0 -0.26 -0.14 -0.3 -0.38 -0.3 c-2.8 0 -6.22 1.88 -6.22 5.08 c0 0.56 0.34 1.7 1.02 1.7 c0.2 0 0.42 -0.06 0.7 -0.06 c0.12 0 0.52 0 0.52 0.22 c0 0.64 -1.4 1.2 -2.26 1.2 c-1.4 0 -1.98 -1.26 -2.04 -2.64 c0.02 -3.98 4.5 -6.04 7.82 -6.04 c2.66 0 5.86 1.1 5.86 4.4 c0 1.78 -1.02 4.16 -3.16 4.16 c-0.84 0 -2.06 -0.36 -2.06 -1.6 c0 -0.18 0 -0.26 0.3 -0.26 l0.92 0.46 c1.7 -0.02 2.7 -1.96 2.7 -3.44 c0 -0.56 -0.04 -1.14 -0.38 -1.58 c-0.2 -0.28 -1.02 -0.94 -1.44 -0.94 c-0.48 0 -1.6 2.94 -2.26 4.18 c-0.4 0.66 -0.8 1.22 -1.12 1.88 c-0.7 1.2 -1.16 2.54 -2.06 3.62 c-0.46 0.56 -2.36 1.3 -2.36 1.68 c0.26 -0.02 1.34 -0.18 2.38 -0.18 c1.12 0 2.22 0.18 2.22 0.92 c0 0.38 -1.16 1.1 -1.58 1.1 c-0.96 -0.52 -1.92 -0.82 -2.98 -0.82 c-0.98 0 -2.04 0.32 -2.98 0.66 c-0.32 0.08 -0.5 0.36 -0.84 0.36 c-0.28 0 -0.28 -0.32 -0.28 -0.52 z M122.92 20 c-0.08 -0.04 -0.18 -0.26 -0.18 -0.36 c0.1 -0.32 0.5 -0.7 0.66 -1.02 c0.04 -0.06 0.12 -0.38 0.26 -0.46 c0.46 -0.96 3.64 -7.02 4.3 -7.92 c0.6 -0.92 0.38 -2.06 1.86 -2.06 c0.04 0 0.82 -0.02 0.82 0.38 c0 0.24 -0.14 0.48 -0.28 0.66 c-1.12 2.24 -2.1 2.88 -3.02 5.58 l0.14 0 c0.64 -0.38 1.16 -0.56 1.86 -0.56 c0.6 0 1.28 0.46 1.28 0.9 c0 0.46 -0.34 1.04 -0.54 1.24 c-0.52 0.84 -1.16 1.92 -1.16 2.9 c0.14 0.06 0.26 0.08 0.4 0.08 c0.5 0 0.92 -0.32 1.32 -0.48 c0.1 0 0.1 0.1 0.1 0.16 c0 0.74 -1.76 1.06 -2.38 1.06 c-0.7 0 -1.36 -0.18 -1.36 -0.98 c0 -0.92 0.72 -1.54 1.12 -2.26 c0.34 -0.6 0.66 -1.34 0.66 -1.54 c0 -0.28 -0.32 -0.34 -0.56 -0.34 c-1.06 0 -1.3 1.02 -3.62 4.86 c-0.1 0.16 -0.84 0.26 -0.94 0.26 s-0.66 -0.04 -0.74 -0.1 z M137.35999999999999 19.28 c-1.46 0.42 -1.78 0.92 -2.94 0.92 c-0.52 0 -1.22 -0.1 -2.26 -0.36 c-0.52 -0.36 -0.64 -0.86 -0.64 -1.28 c0 -1.52 1.58 -1.8 2.92 -1.8 c1.14 0 2.14 0.24 3.48 0.92 c0.08 0.02 0.16 0.02 0.22 0.02 c0.72 0 0.8 -0.7 1 -1.14 c1.28 -1.36 1.5 -3.48 2.52 -4.96 c0 -1.06 2.82 -3.54 3.9 -3.54 c0 0.42 -0.76 1.36 -0.92 1.72 c-0.86 1.54 -1.36 3.26 -2.16 4.84 c-0.46 0.38 -0.7 1.02 -1.02 1.48 c-0.54 0.8 -2.18 1.1 -2.5 2 c0 0.66 2.7 1.26 3.3 1.26 c2.54 0 4.9 -2.18 5.26 -4.82 c0.46 -0.38 0.22 -1.52 0.36 -2.1 c-0.14 -1.04 0.02 -1.76 -0.46 -2.66 c-0.32 -0.82 -0.66 -1.48 -1.3 -2.04 c-0.24 -0.22 -0.88 -0.74 -0.92 -0.74 l-1.88 -0.66 c-0.06 0 -0.12 0.02 -0.16 0.02 c-0.3 0 -0.58 -0.12 -0.9 -0.12 c-1.12 0 -2.24 0.3 -3.12 0.94 c-0.4 0.28 -1.38 1.02 -1.38 1.02 c-0.8 1.12 -1.5 2.34 -1.5 3.72 c0 0.98 0.42 2.06 1.52 2.06 c0.3 0 0.56 -0.2 0.8 -0.2 c0.1 0 0.28 0.14 0.28 0.24 c-0.2 0.2 -1.16 0.78 -1.58 0.78 c-2 0 -3.06 -1.2 -3.06 -3.06 c0 0.02 0.08 -0.26 0.08 -1.02 c0.32 -0.42 1.1 -2.16 2.42 -3.26 c0.14 -0.1 0.8 -0.46 0.94 -0.56 l0 0.02 c0.08 0 0.7 -0.44 0.82 -0.48 c0.38 -0.14 0.76 -0.42 1.12 -0.56 c0.98 -0.1 2.08 -0.26 3.14 -0.26 c2.78 0 7.02 2.14 7.02 5.78 c0 2.42 -0.32 3.66 -2.34 6.02 c-0.54 0.5 -1.48 1.58 -1.86 1.58 c-1.16 0.62 -2.56 1.32 -4 1.32 c-0.94 0 -1.9 -0.1 -2.8 -0.48 c-0.36 -0.16 -0.98 -0.56 -1.4 -0.56 z M131.98 18.4 c0 0.68 1.58 0.78 2.04 0.78 c0.18 0 2.62 0.02 2.62 -0.46 c0 -0.06 -0.06 -0.18 -0.1 -0.18 c-1.3 -0.62 -2.1 -0.86 -3.5 -0.86 c-0.7 0 -1.06 -0.02 -1.06 0.72 z"></path></g>
</svg>
